<?xml version="1.0" encoding="UTF-8" standalone="no"?>
<!-- Created with Inkscape (http://www.inkscape.org/) -->

<svg
        width="100"
        height="100"
        viewBox="0 0 400 400"
        version="1.1"
        id="svg5"
        xmlns:xlink="http://www.w3.org/1999/xlink"
        xmlns="http://www.w3.org/2000/svg"
>
  <defs
     id="defs2">
    <linearGradient
       id="linearGradient47450">
      <stop
         style="stop-color:#590073;stop-opacity:1;"
         offset="0"
         id="stop47446" />
      <stop
         style="stop-color:#590073;stop-opacity:0;"
         offset="1"
         id="stop47448" />
    </linearGradient>
    <linearGradient
       id="linearGradient40756">
      <stop
         style="stop-color:#572557;stop-opacity:1;"
         offset="0"
         id="stop40752" />
      <stop
         style="stop-color:#572557;stop-opacity:0;"
         offset="1"
         id="stop40754" />
    </linearGradient>
    <linearGradient
       xlink:href="#linearGradient47450"
       id="linearGradient47452"
       x1="8.3058167"
       y1="193.32503"
       x2="409.26849"
       y2="193.32503"
       gradientUnits="userSpaceOnUse"
       gradientTransform="translate(-103.40199,70.986547)" />
  </defs>
  <g
     id="layer5">
    <ellipse
       style="display:inline;opacity:0.414634;fill:url(#linearGradient47452);fill-opacity:1;fill-rule:nonzero;stroke:none;stroke-width:1.04297;stroke-opacity:1"
       id="path37077"
       cx="105.38517"
       cy="264.31158"
       rx="200.48134"
       ry="197.59325"
       transform="rotate(-23.056452)" />
  </g>
  <g
     id="layer2">
    <rect
       style="opacity:1;fill:#44c1c2;fill-opacity:0.99598402;stroke-width:0.985999"
       id="rect6734"
       width="93.367332"
       height="214.04575"
       x="92.914253"
       y="78.613693" />
    <rect
       style="opacity:1;fill:#6153cc;fill-opacity:0.99598402;stroke-width:1.03028"
       id="rect7344"
       width="91.968987"
       height="272.44284"
       x="185.76868"
       y="19.735258" />
  </g>
  <g
     id="layer3">
    <rect
       style="display:inline;opacity:1;fill:#5c4742;fill-opacity:0.995984;stroke-width:1.05004"
       id="rect12378"
       width="10.281258"
       height="113.82573"
       x="267.45642"
       y="178.35239" />
  </g>
  <g
     id="layer1"
     style="display:inline">
    <rect
       style="fill:#86ff08;fill-opacity:0.995984;stroke-width:0.738636"
       id="rect1038"
       width="119.85561"
       height="87.42215"
       x="138.1468"
       y="205.2373" />
    <path
       id="path12015"
       style="fill:#8bff0b;fill-opacity:0.995984;stroke-width:0.677769"
       d="m 197.45553,152.35623 -81.52734,54.9375 160.67383,-0.0605 z" />
  </g>
  <g
     id="layer4">
    <g
       id="g25830"
       transform="translate(-106.44631,-64.37771)">
      <path
         style="fill:#429639;fill-opacity:1;stroke:none;stroke-opacity:1"
         id="path12550"
         d="m 352.39131,250.84749 c -0.22469,-0.13443 -0.45409,-0.26131 -0.67409,-0.40331 -0.28338,-0.18288 -0.54811,-0.39418 -0.83537,-0.57092 -0.57076,-0.35117 -1.20757,-0.59068 -1.76486,-0.96287 -0.5469,-0.36525 -1.03343,-0.81431 -1.56657,-1.19936 -1.09005,-0.93862 -1.90545,-2.16261 -2.40681,-3.50396 -0.60059,-1.8602 -0.4705,-3.85437 -0.3048,-5.77266 0.29038,-2.19738 1.00932,-4.31175 1.93032,-6.31911 0.65807,-1.54866 1.65057,-2.91038 2.42222,-4.39713 0.14485,-0.44949 1.14172,-2.06076 0.38863,-2.44702 -0.11842,-0.0608 -0.26031,-0.0555 -0.39047,-0.0832 -0.17682,-0.0556 -0.34844,-0.13181 -0.53047,-0.16681 -0.48293,-0.0929 -0.98193,-0.0679 -1.46919,-0.13428 -1.02099,-0.13918 -2.02464,-0.29269 -3.053,-0.38928 -2.31041,-0.36473 -4.35445,-1.62635 -6.50153,-2.49039 -1.37569,-0.6988 -2.86841,-1.17027 -4.23638,-1.88354 -1.29448,-0.67496 -2.47077,-1.53746 -3.5992,-2.45317 -1.31039,-1.21306 -2.7495,-2.28701 -4.0806,-3.474 -0.092,-0.082 -1.96051,-1.9143 -2.08096,-2.0323 -2.12335,-2.09371 -3.01796,-3.95031 -3.88193,-6.74693 -0.60106,-2.33053 -0.73895,-3.80574 0.064,-6.10493 0.90269,-1.97995 2.54864,-3.41825 4.27879,-4.66785 2.95376,-1.85656 6.46391,-2.40267 9.84169,-2.99187 2.59646,-0.40566 5.18829,-0.87823 7.79603,-1.20562 0.16091,-0.0197 0.68159,-0.0473 0.84341,-0.18659 0.69357,-0.59707 0.4853,-1.92989 0.38261,-2.67884 -0.57607,-2.08027 -1.90765,-3.84634 -3.18243,-5.55277 -1.29319,-1.59243 -1.77308,-3.49171 -1.94971,-5.48855 -0.0365,-1.40611 -0.27004,-2.82466 -0.038,-4.22556 0.16355,-0.98925 0.35299,-1.41137 0.67745,-2.3545 0.93651,-2.36669 2.50851,-4.41973 4.22616,-6.27297 1.93732,-1.8524 4.59116,-2.18857 7.05778,-2.89769 2.3268,-0.68355 4.70403,-1.18794 7.01223,-1.93218 1.8275,-0.57187 3.33416,-1.30694 4.58953,-2.76289 1.0263,-1.61553 1.56437,-3.49997 2.09753,-5.32547 0.37552,-1.1749 0.61649,-2.54388 1.5243,-3.45933 0.17388,-0.17533 0.39247,-0.29974 0.58871,-0.44962 7.82899,-3.34319 17.35002,-0.54681 25.36142,-0.43577 0.25751,0.004 2.16714,0.85274 2.55045,0.9906 0.26874,0.12407 0.53122,0.26273 0.80624,0.37221 1.7374,0.69168 -0.1925,-0.19464 1.5659,0.55916 0.76209,0.3267 1.42054,0.6353 2.23037,0.83092 1.81187,0.46168 3.63115,0.90254 5.42686,1.44339 0.29947,0.12842 0.59031,0.27918 0.89841,0.38525 2.17085,0.74734 -0.40915,-0.31768 1.85604,0.53196 1.05017,0.39391 2.05166,0.94138 3.0522,1.44333 1.24967,0.52475 2.51343,1.0586 3.55781,1.9476 0.40368,0.34362 1.03205,1.05523 1.38867,1.44528 1.55186,1.72206 2.65037,3.72769 3.53474,5.85556 0.78818,2.1451 1.21262,4.37239 1.41118,6.64141 0.18841,2.02195 0.27861,4.05611 0.22006,6.08623 -0.1044,1.6855 -0.75098,3.25192 -1.44234,4.7698 0.46371,-0.13282 -0.39429,1.09289 -0.30743,0.81562 1.74977,-5.58542 0.0161,-0.54215 0.48514,-0.88163 0.45826,-0.3317 1.35355,-0.10804 1.78214,-0.0617 3.4799,0.36224 6.98558,0.15087 10.46172,0.5035 2.19786,0.35502 4.43155,0.83639 6.48166,1.73145 1.1873,0.51837 1.83118,0.90778 2.96302,1.53231 3.20431,1.8633 4.10985,4.31756 4.81,7.77388 0.68033,3.40987 -0.28699,6.28481 -1.68861,9.34591 -1.46435,3.02373 -3.67532,5.54407 -5.88427,8.03508 -2.00045,2.45912 -4.31306,4.61227 -6.67468,6.71526 -1.66578,1.3758 -3.21082,2.9147 -4.94301,4.20886 -0.0115,0.0589 -0.77608,0.47218 -0.7912,0.50318 -0.22307,0.45701 0.19156,1.09956 0.37593,1.46758 0.6176,1.18663 1.63358,2.05771 2.43797,3.10413 0.44365,0.57713 0.86522,1.17096 1.30551,1.75065 1.46031,2.33326 1.98339,5.0535 2.41671,7.72975 0.36836,2.8368 -0.14248,4.96731 -1.23059,7.56764 -1.58153,2.94053 -3.81908,5.46921 -6.06799,7.91446 -2.16904,2.29479 -4.61214,4.29513 -7.05012,6.29136 -2.34492,1.94812 -4.99494,3.41137 -7.73598,4.70958 -2.79113,1.25724 -5.6923,2.22547 -8.64045,3.0348 -10.44515,2.27401 -21.47964,1.28725 -31.97733,1.40645 -1.40554,-0.17397 -2.91827,-0.2187 -4.27178,-0.68892 -1.30081,-0.58755 -0.64233,-0.32906 -1.97423,-0.77849 -0.90732,-0.48339 -2.01691,-0.52408 -2.90429,-1.05091 -0.30257,-0.17964 -0.53702,-0.45586 -0.82126,-0.66331 -2.12077,-1.54777 0.53041,0.55176 -1.4711,-1.06353 -1.17488,-0.84869 -2.03683,-1.959 -2.91866,-3.09491 -1.06936,-1.51549 -1.71488,-3.28164 -2.26383,-5.04046 -0.38974,-1.2896 -0.53636,-2.62625 -0.60342,-3.96583 -0.12428,-0.62182 0.24793,-1.76946 -0.33094,-2.22165 -0.60357,0.31973 -1.22598,0.44592 -1.90467,0.51111 -0.22221,-0.23813 -0.57645,-0.17023 -0.83227,-0.32201 -0.14565,-0.0864 -0.24174,-0.23894 -0.37825,-0.33915 -0.10374,-0.0762 -0.24161,-0.10131 -0.33797,-0.18661 -0.95215,-0.84277 0.2087,-0.0562 -0.60495,-0.57737 -0.91109,-0.80446 0.37928,0.37789 -0.60763,-0.70232 -0.0829,-0.0907 -0.21093,-0.13119 -0.29498,-0.22072 -0.11022,-0.11741 -0.16942,-0.27689 -0.28113,-0.39289 -0.0769,-0.0799 -0.21005,-0.0966 -0.27602,-0.18574 -0.11821,-0.15973 -0.17255,-0.35802 -0.25883,-0.53702 -0.3249,-0.42824 1.73614,-0.85849 1.41692,-1.2894 -0.0811,-0.10949 6.33815,1.1698 4.76267,-1.24926 -0.23195,-0.35614 -4.60626,5.13917 -6.17959,2.53866 4.23484,5.40318 9.86816,3.07306 2.31947,-3.01697 l 19.67266,-1.34677 v 0 c 0.0591,0.0955 0.11821,0.19112 0.17731,0.28667 0.55516,0.76055 0.95698,1.61537 1.5827,2.32305 0.61499,0.31911 0.9704,1.04595 1.68808,1.23354 0.54968,0.37361 1.28842,0.28489 1.93584,0.23538 1.16064,0.27323 1.89442,0.91687 2.2211,2.1019 0.24149,1.01047 0.30022,2.02183 0.26447,3.05988 0.0276,1.1271 0.0934,2.25821 0.39988,3.35017 0.46698,1.52246 1.16453,2.92766 2.2758,4.09118 0.85644,0.93494 1.75459,1.81244 2.80673,2.52917 0.26983,0.17024 1.13508,0.72529 1.38895,0.84376 1.13462,0.52943 2.42294,0.74687 3.57974,1.21987 1.95732,0.60753 4.00824,0.79828 6.05526,0.76047 -40.85801,0.52397 -23.07678,0.94683 -13.98973,-0.42924 2.90837,-0.60493 5.74173,-1.54397 8.50867,-2.61907 2.69769,-1.1464 5.39843,-2.33576 7.73746,-4.13674 2.45623,-1.87291 4.83968,-3.82634 7.03529,-6.00423 2.22757,-2.10631 4.28033,-4.43869 5.89967,-7.04709 0.87729,-2.03966 1.41441,-4.03043 1.18872,-6.27517 -0.35228,-2.36581 -0.92133,-4.66772 -2.47482,-6.56079 -1.35825,-1.76158 -2.91407,-3.40955 -3.87487,-5.43659 -0.48687,-1.26663 -0.92822,-2.70059 -0.48445,-4.06406 0.13733,-0.42196 0.52617,-0.7636 0.81473,-1.06961 1.55527,-1.11713 -0.42106,0.26627 1.34822,-0.84588 1.45192,-0.91267 2.72405,-2.10501 4.10565,-3.11425 0.80352,-0.69409 1.64434,-1.34509 2.43273,-2.05633 1.51686,-1.36842 2.90621,-2.89141 4.25037,-4.42557 2.18821,-2.22928 4.28451,-4.61681 5.82197,-7.34958 1.27426,-2.45283 2.23655,-4.99499 1.58844,-7.79066 -0.7593,-3.08763 -1.63977,-4.27723 -4.52931,-5.73858 -2.91168,-1.32287 -5.9845,-2.19894 -9.19452,-2.37919 -3.62479,-0.14292 -7.26757,-0.12305 -10.86729,-0.62902 -0.7349,-0.13918 -1.72916,-0.18737 -2.30131,-0.804 -0.90364,-0.97389 -0.75043,-2.3451 -0.23194,-3.42183 0.62006,-1.23946 1.36977,-2.44101 1.57519,-3.83846 0.15272,-1.90351 -0.008,-3.82106 -0.0962,-5.72503 -0.24107,-2.02019 -0.60401,-4.02312 -1.38979,-5.91333 -0.8719,-1.86906 -2.00071,-3.5557 -3.5654,-4.92537 -1.43073,-1.17206 -3.09937,-1.87406 -4.7704,-2.64232 -1.88388,-0.81128 -3.8522,-1.37222 -5.80963,-1.97445 -1.87287,-0.48535 -3.76701,-0.90391 -5.59103,-1.55382 -1.48378,-0.65285 4.63552,10.59404 3.10305,10.06651 -0.7368,-0.2346 -8.56795,-12.16432 -9.34076,-12.28165 -0.29172,-0.0443 -1.1762,-0.0813 -0.88115,-0.0846 7.56702,-0.0839 15.13537,-0.0382 22.70192,-0.15741 0.38502,-0.006 -3.32429,1.46992 -1.1329,-0.22585 -0.29884,-0.0579 9.25334,-0.46902 8.94987,-0.44524 -0.81817,0.064 -10.90414,1.58586 -11.14126,2.14101 -0.73812,1.96003 -1.20169,4.02108 -2.07819,5.93357 -1.1585,2.1961 -2.56935,3.32781 -4.87941,4.25185 -0.27085,0.10955 -1.91877,0.78301 -2.19812,0.86832 -1.60379,0.48973 -3.29073,0.69993 -4.8829,1.23648 -0.80694,0.21737 -1.592,0.51121 -2.39911,0.72796 -1.49519,0.40154 -3.11462,0.35229 -4.50285,1.1171 -0.28884,0.20184 -0.60257,0.37208 -0.86651,0.60553 -0.53576,0.47387 -1.07314,1.23954 -1.50275,1.79774 -0.65543,0.8516 -1.32911,1.69384 -1.77848,2.68012 -0.10924,0.31178 -0.51615,1.42745 -0.59196,1.80347 -0.24493,1.21462 -0.006,2.48399 0.0698,3.70072 0.27545,1.60497 0.79711,3.04923 1.79896,4.36045 1.34631,2.0707 2.77817,4.16445 3.23346,6.63989 0.22798,1.52439 0.35206,2.92344 -0.15837,4.40812 -0.11939,0.34727 -0.22221,0.70737 -0.41208,1.02171 -0.16387,0.27128 -0.42226,0.47272 -0.63339,0.70909 -0.28542,0.14264 -0.5519,0.3321 -0.85625,0.42791 -0.34814,0.10959 -0.71972,0.12199 -1.07982,0.18154 -2.19991,0.36379 -4.42972,0.483 -6.62979,0.85716 -3.07342,0.51304 -6.21956,0.90177 -9.11265,2.12335 -1.52896,0.88247 -3.03556,1.85212 -4.13259,3.26436 -0.85255,1.6165 -0.5834,2.75228 -0.18769,4.48589 0.71244,2.3799 1.84035,3.87345 3.63299,5.58376 1.94273,1.86967 4.0798,3.53 6.19002,5.20479 2.37072,1.61606 5.00035,2.73447 7.67894,3.74543 2.14193,0.86256 4.28381,1.74159 6.6185,1.88285 2.03581,0.34798 4.18448,0.61364 5.49732,2.39481 0.16097,0.31941 0.36367,0.62101 0.4829,0.95822 0.51237,1.44912 0.076,2.97748 -0.53618,4.30749 -0.73097,1.53195 -1.57872,2.96907 -2.46488,4.41284 -0.95395,1.69168 -1.71833,3.49779 -2.01195,5.4302 -0.14507,1.52457 -0.0979,3.10619 0.58014,4.51221 0.58091,0.90654 1.20088,1.74588 2.14095,2.31888 1.47442,1.0406 -1.80449,-0.24611 0,0 l -18.57582,5.57552 z" />
      <path
         style="fill:#42af39;fill-opacity:0.995984;stroke:none;stroke-width:0.120337;stroke-opacity:1"
         d="m 382.08563,259.0959 c -0.92382,-0.38844 -2.24445,-1.40708 -3.6504,-2.81567 -1.30641,-1.30887 -1.58561,-1.66004 -2.06447,-2.5966 -0.93226,-1.82333 -1.29516,-3.50346 -1.29746,-6.00699 -0.003,-3.21385 -0.87805,-4.52153 -3.06958,-4.587 -1.13351,-0.0339 -1.73541,-0.32714 -2.79097,-1.35991 -0.99302,-0.97158 -1.07603,-1.20333 -0.95422,-2.66399 0.17066,-2.04631 0.93187,-4.07266 2.60047,-6.92242 2.18485,-3.73148 2.7139,-5.08605 2.6239,-6.71825 -0.0635,-1.15077 -0.42233,-1.98057 -1.17063,-2.70677 -0.98971,-0.96049 -2.29275,-1.42333 -5.17301,-1.8375 -2.16173,-0.31084 -3.15649,-0.5977 -6.22177,-1.79422 -4.8928,-1.90987 -6.68369,-2.87422 -9.47336,-5.10116 -4.51522,-3.60441 -6.31681,-5.43004 -7.38532,-7.48386 -1.11024,-2.134 -1.48527,-4.59349 -0.8976,-5.88652 0.45465,-1.00038 1.9266,-2.33461 3.8293,-3.47101 1.88405,-1.12528 6.48471,-2.11123 14.12272,-3.02659 3.1736,-0.38033 3.71002,-0.52169 4.32921,-1.14089 0.53913,-0.53913 1.0066,-1.82002 1.14292,-3.13167 0.0878,-0.84452 -0.0799,-2.51134 -0.36925,-3.67028 -0.27054,-1.08368 -1.45046,-3.38495 -2.79556,-5.45233 -1.3619,-2.09323 -1.85252,-3.31806 -2.0622,-5.14829 -0.38979,-3.40253 0.13201,-4.94202 2.8211,-8.32327 1.3288,-1.67082 2.10689,-2.0879 4.75568,-2.54915 0.76113,-0.13255 2.17586,-0.48233 3.14385,-0.7773 0.96799,-0.29497 2.67376,-0.75184 3.79061,-1.01526 2.3709,-0.5592 5.02616,-1.60591 6.32484,-2.49326 1.36144,-0.93023 2.48273,-2.38689 3.11354,-4.04479 l 0.25954,-0.68211 0.52377,0.22451 c 1.10153,0.47217 3.14831,1.52611 3.78247,1.94769 0.97696,0.64946 1.56413,1.1839 2.33232,2.12286 2.49565,3.05042 3.48633,6.3273 3.64335,12.05111 0.0893,3.25563 0.0411,3.51082 -1.11798,5.92284 -0.99826,2.07728 -1.10248,2.78196 -0.56529,3.82196 0.26795,0.51876 0.45605,0.71659 0.88209,0.92776 0.99717,0.49423 3.94705,0.78929 9.99937,1.00019 3.99599,0.13924 5.55936,0.34022 7.91051,1.01695 3.3999,0.97859 6.00431,2.36415 6.96185,3.70374 0.81838,1.1449 1.36901,2.63189 1.60628,4.33779 0.39811,2.86236 -1.20206,6.76784 -4.36215,10.64654 -0.90865,1.11528 -3.83186,4.33282 -5.75003,6.32899 -1.81078,1.88441 -6.73776,5.90927 -8.56242,6.99466 -1.62339,0.96566 -2.16621,1.94127 -1.96704,3.53536 0.25266,2.02224 0.99221,3.38038 3.64366,6.69136 1.52955,1.91002 2.07429,2.81465 2.5396,4.21747 1.07829,3.25077 1.07355,5.7978 -0.0161,8.66426 -1.11086,2.92223 -5.76718,8.006 -11.56849,12.63045 -2.26185,1.80302 -3.65862,2.73956 -5.4324,3.64249 -2.25526,1.14801 -4.17002,1.95697 -6.6251,2.79901 -0.86246,0.2958 -1.01428,0.31609 -1.34015,0.17907 z"
         id="path16310" />
      <path
         style="fill:#429639;fill-opacity:1;stroke:none;stroke-width:0.0851896;stroke-opacity:1"
         d="m 382.08562,259.09592 c -0.41476,-0.5535 -0.84375,-1.6432 -1.18577,-3.01209 -0.31782,-1.27197 -0.36047,-1.58983 -0.31534,-2.3503 0.0878,-1.4805 0.46534,-2.68183 1.3497,-4.29514 1.13528,-2.07105 1.07483,-3.20065 -0.21193,-3.96234 -0.66555,-0.39397 -0.92157,-0.78047 -1.18712,-1.79225 -0.24982,-0.95182 -0.21745,-1.12835 0.37213,-2.02919 0.82598,-1.26203 1.99788,-2.3173 4.00348,-3.60505 2.6261,-1.68618 3.42157,-2.38497 3.94523,-3.46584 0.36918,-0.76208 0.44827,-1.41437 0.25792,-2.1278 -0.25176,-0.9436 -0.86688,-1.66953 -2.44196,-2.88193 -1.18216,-0.90995 -1.67526,-1.42131 -3.08414,-3.19838 -2.24887,-2.83654 -2.97816,-4.04566 -3.85774,-6.39595 -1.42367,-3.80406 -1.85463,-5.57146 -1.76669,-7.24515 0.0914,-1.73905 0.73736,-3.44636 1.54609,-4.08629 0.62569,-0.49508 1.97755,-0.87122 3.51689,-0.9785 1.52426,-0.10625 2.86814,-4.24809 2.86814,-4.24809 0,0 0.0843,-2.65191 7.337,-3.89635 6.01422,-1.03194 12.68395,-12.82017 5.62127,11.57805 -0.17337,0.59891 -2.2589,-3.52528 -2.2589,-3.52528 -3.36237,-8.05277 -1.95582,-6.80811 -2.02839,-8.58135 -0.0735,-1.7954 4.86493,0.83654 4.68024,-0.50336 -0.35291,-2.56025 1.22565,-4.22292 4.02928,-5.51794 1.38538,-0.63994 2.59971,0.4299 4.34615,1.00243 0.50184,0.16452 1.47121,0.40369 2.15416,0.5315 0.68295,0.12781 1.86418,0.39356 2.62495,0.59057 1.61499,0.41821 4.65546,0.73611 5.74566,0.59093 1.14287,-0.1522 2.97562,-2.3882 2.20903,-1.70342 l 0.39646,-0.35415 0.59465,-3.05286 c 0.15821,-0.81221 0.9809,5.38606 1.2108,5.8658 0.35418,0.73908 0.51606,1.2761 0.64304,2.1331 0.41251,2.78417 -0.15467,5.2201 -2.08586,8.95843 -1.09843,2.12631 -1.21755,2.27484 -2.76369,3.44793 -1.33162,1.01026 -1.64322,1.42994 -1.69007,2.27618 -0.0234,0.42211 0.0191,0.61129 0.19901,0.88719 0.42119,0.64572 2.08002,1.80426 5.62304,3.92716 2.33926,1.40163 3.20262,2.04436 4.36855,3.25217 1.68599,1.74655 2.75252,3.49407 2.85094,4.67129 0.0841,1.00614 -0.11285,2.14471 -0.57457,3.32139 -0.77471,1.97439 -3.1129,3.9646 -6.37403,5.42542 -0.93771,0.42004 -3.82333,1.53277 -5.67609,2.18876 -1.74905,0.61927 -6.118,1.59414 -7.59265,1.69419 -1.312,0.089 -1.98162,0.53921 -2.42654,1.63137 -0.56443,1.3855 -0.60288,2.5031 -0.18943,5.50625 0.23851,1.73244 0.24406,2.49398 0.0259,3.55031 -0.50557,2.44788 -1.40952,4.0869 -3.07499,5.57547 -1.69785,1.51753 -6.27966,3.26332 -11.38336,4.33734 -1.98986,0.41874 -3.15609,0.56341 -4.53577,0.56263 -1.75419,-9.8e-4 -3.1849,-0.10856 -4.95027,-0.37223 -0.62017,-0.0926 -0.7181,-0.1294 -0.8644,-0.32465 z"
         id="path16310-4" />
    </g>
    <g
       id="g36952"
       transform="matrix(0.99682016,0,0,0.99482133,359.48105,116.85534)">
      <path
         style="opacity:1;fill:#f9d805;fill-opacity:0.995984;stroke:none;stroke-width:0.680729;stroke-opacity:1"
         d="m -47.906272,208.72046 c -6.432884,-1.1699 -15.329843,-2.34417 -18.778298,-2.7324 -13.846564,-1.55883 -83.62845,-1.37197 -101.41283,1.30362 -16.18106,2.43438 -31.65086,3.02 -41.65208,2.06349 -18.83013,-1.8009 -40.63941,-6.18498 -48.27705,-9.90702 -5.1642,-2.51666 -15.47011,-12.63056 -19.26268,-18.61548 -4.73067,-7.4653 -15.96128,-33.02242 -25.17381,-57.06218 -1.3529,-3.53036 -3.27359,-9.87815 -4.37218,-14.21021 -1.09859,-4.33205 -2.79106,-9.600503 -3.55305,-11.083666 -1.73877,-3.384435 -2.33925,-7.110636 1.42258,-8.258634 1.53248,-0.467665 2.90157,2.281161 14.52383,17.31388 4.83512,6.25395 10.85866,13.85288 13.48965,16.88651 2.63099,3.03363 6.50579,7.35366 8.29867,9.60006 7.46057,9.3478 12.08845,13.22598 26.12091,22.54449 7.54789,5.01231 14.38083,9.49282 15.6003,10.11114 3.01408,1.52825 17.94805,5.53769 27.14014,7.31315 6.66147,1.28666 26.29962,2.063 29.52566,2.24822 l 22.00334,-0.52838 3.50334,-1.56191 c 5.44379,-2.42703 7.27626,-4.15284 7.03014,-6.66445 -0.17672,-1.80349 -1.26747,-1.89611 -3.64715,-2.40339 -1.4976,-0.31924 -4.28737,-0.5891 -6.34658,-1.33509 -2.0592,-0.74599 -7.65504,-2.82633 -12.4352,-4.4759 -9.94947,-3.43343 -23.64998,-10.06766 -29.7671,-14.40965 -5.59827,-3.97371 -12.13231,-12.20653 -14.71188,-17.44639 -1.1608,-2.35791 -0.63694,-3.48033 -0.63694,-3.48033 -0.78399,-1.88028 1.05295,-0.48135 9.91314,2.34169 6.67144,2.12566 13.65685,4.83389 18.94183,5.73908 4.41946,0.75695 12.35427,1.94244 17.25531,3.41824 l 11.67509,0.80513 35.85041,0.68703 c 15.44028,0.2959 36.602622,-0.7832 50.161182,3.83911 5.136212,1.751 6.988755,2.40476 10.381111,5.77083 2.059204,2.04324 5.029304,5.11094 6.392225,6.1931 3.069868,2.43749 4.106951,5.70301 5.070413,13.0586 1.145803,8.74764 2.073098,12.31727 4.93309,21.35751 3.763503,11.89615 5.112347,24.68643 2.576252,24.44825 -0.442766,-0.0416 -5.604173,-1.61305 -11.781785,-2.86805 z"
         id="path33390" />
      <path
         style="opacity:1;fill:#f9c305;fill-opacity:0.995984;stroke:none;stroke-opacity:1"
         id="path25865"
         d="m -332.43918,94.516634 c 0.2548,3.34747 1.88102,5.748786 2.48339,9.047666 0.75396,3.9153 2.65348,7.71789 3.75895,11.55012 1.31568,4.26782 2.85078,8.57002 4.51266,12.7108 1.58224,4.48551 2.98743,9.18099 4.71876,13.60831 1.3181,3.98669 2.60682,7.68022 4.18856,11.56595 1.45539,3.68926 4.05971,11.34728 4.05971,11.34728 4.44826,10.05564 2.78606,6.02725 4.27808,9.37491 1.25365,2.75174 2.57933,5.47999 4.10681,8.09107 1.51706,2.65283 3.46264,5.00337 5.43001,7.32666 1.70614,2.13359 3.62404,4.07714 5.57322,5.98569 1.75215,1.67981 3.60693,3.24282 5.51324,4.74404 2.10872,1.70973 4.52682,2.8636 7.00716,3.91451 2.81855,1.14488 5.76008,1.91136 8.70915,2.62971 3.02003,0.6098 5.99388,1.41535 8.98664,2.14101 2.49346,0.71216 5.06567,1.04798 7.62392,1.42937 2.71294,0.43148 5.42154,0.89406 8.13898,1.29669 3.30924,0.3882 6.6294,0.67145 9.94139,1.03718 2.23234,0.22129 4.46108,0.46034 6.68933,0.71919 2.78733,0.31251 5.58195,0.50387 8.38311,0.63821 2.80547,0.11993 5.61395,0.12857 8.42146,0.13612 10.13947,-0.54643 20.86205,-0.57932 31.16829,-1.5584 3.44217,-0.24997 7.05907,-0.40136 10.50411,-0.60798 2.74657,-0.26399 3.82349,-0.35335 7.95175,-0.54427 0.30792,-0.0142 3.3615,-0.26814 3.73545,-0.31894 3.75779,-0.34093 7.21973,-0.56459 10.86633,-0.85323 4.30004,-0.13554 8.1354,-0.17508 12.37139,-0.35475 3.58192,-0.1196 7.16645,-0.1275 10.75,-0.1302 3.62363,-0.19904 7.24954,-0.33618 10.87776,-0.41012 3.55813,-0.10603 6.77088,-0.46096 10.33101,-0.56307 4.364803,-0.10414 9.069963,0.0135 13.435683,0.006 7.90615,-0.0222 20.68631,-0.0136 -15.660833,-0.008 -0.91189,1.4e-4 1.48344,10e-4 2.22515,0.002 2.806243,0.004 1.490343,-0.006 4.254493,0.0338 3.63883,0.11987 7.27876,0.2079 10.89364,0.66224 2.68251,0.35663 5.32272,0.95732 7.99292,1.386 2.60187,0.55267 5.22038,1.0147 7.84232,1.46396 3.65056,0.63986 7.30271,1.27713 10.92704,2.05374 2.73091,0.58397 5.42866,1.26403 8.05987,2.20111 1.61036,0.50654 3.15086,1.22181 4.76261,1.71923 1.10692,0.38791 2.21809,0.731 3.25789,1.28489 1.80708,0.81631 3.54889,1.78081 5.31119,2.69227 7.92053,4.14127 24.12288,7.79177 25.88147,-1.88266 0.11452,-1.37498 0.044,-2.75691 0.0103,-4.13417 0.1041,-1.23835 0.3094,-2.46432 0.4239,-3.70198 0.081,-1.03807 0.11427,-2.08006 0.0881,-3.12088 -0.0242,-1.41132 -0.0332,-2.81838 -0.13677,-4.22694 -0.18288,-1.93263 -0.3931,-3.85855 -0.74918,-5.7674 -0.59307,-2.63068 -1.12091,-5.27518 -1.72237,-7.90405 -0.71331,-2.38181 -1.49406,-4.7439 -2.32982,-7.08521 -0.67229,-1.9493 -1.22191,-3.93759 -1.69115,-5.94447 -0.44561,-1.87112 -0.77272,-3.76595 -1.16262,-5.64855 -0.28894,-1.55188 -0.32681,-3.1312 -0.56099,-4.68979 -0.2391,-1.34551 -0.23793,-2.71472 -0.38118,-4.07029 -0.12887,-1.52291 -0.60004,-2.97832 -0.95537,-4.45489 -0.33846,-1.40359 -0.77926,-2.77782 -1.16498,-4.16869 -0.25643,-1.1408 -0.98292,-2.03892 -1.58092,-3.0105 -1.05862,-1.3476 -2.53036,-2.34347 -3.89138,-3.37292 l -3.477584,-3.58456 c -3.123776,-2.98333 -2.051843,-1.95727 -3.123776,-2.98333 -1.739975,-1.71681 -1.645026,-1.60874 -2.640046,-2.19693 -1.38122,-0.40389 -2.709154,-0.87845 -4.081414,-1.31334 -1.67767,-0.40533 -3.32945,-0.92022 -5.0286,-1.22902 -1.61617,-0.48963 -3.23825,-0.9459 -4.8772,-1.35405 -1.78503,-0.34308 -3.5539,-0.72393 -5.36698,-0.88213 -1.64698,-0.1928 -3.28438,-0.47804 -4.94369,-0.53426 -1.74386,-0.26715 -3.49418,-0.43087 -5.25595,-0.51583 -1.93906,-0.11833 -3.88586,-0.0118 -5.82354,-0.12676 -2.04009,-0.23375 -4.09061,-0.32265 -6.14179,-0.38381 -2.17256,-0.0542 -4.34575,-0.0527 -6.51878,-0.0588 -9.92339,0.13494 -19.848493,-0.0476 -29.772423,0.0128 -2.81699,0.0136 -5.63402,0.006 -8.45103,0.006 -3.03789,0.0987 -6.09228,0.20545 -9.11975,0.49977 -3.02382,0.30958 -6.0621,0.39142 -9.09896,0.44746 -8.06445,0.0639 -19.72723,0.15002 18.04367,-0.004 0.52865,-0.002 -1.05694,-0.0298 -1.58506,-0.0534 -1.59398,-0.0715 -1.78704,-0.10246 -3.39854,-0.23407 -3.87448,-0.25286 -7.68554,-1.00001 -11.47839,-1.79215 -3.77165,-0.86932 -7.54258,-1.73486 -11.32854,-2.54035 -3.48821,-0.70091 -7.00205,-1.26532 -10.50555,-1.88441 -3.11376,-0.46252 -6.13374,-1.30544 -9.1344,-2.23357 -2.7654,-0.86531 -5.41295,-2.04771 -8.12311,-3.06264 -2.68049,-1.0172 -5.42385,-1.85087 -8.11548,-2.83648 -2.55068,-0.96518 -5.06173,-2.0309 -7.61278,-2.99495 -2.08657,-0.76886 -4.20947,-1.43333 -6.30367,-2.18224 -1.48572,-0.47051 -2.91164,-1.09283 -4.34703,-1.69269 -7.44544,-4.3681 -1.00558,-0.71976 -24.56178,-0.10173 -0.21253,0.006 -0.31655,0.28461 -0.48558,0.41357 -0.57772,0.44079 -0.73596,0.60636 -1.0926,1.26265 -0.43908,1.27119 -0.70284,2.57906 -0.87841,3.91075 -0.18988,1.3794 -0.0896,2.77091 -0.053,4.15611 -0.0658,2.1369 0.5036,4.20485 1.16903,6.21433 0.78206,1.96914 1.94801,3.779 3.15813,5.51146 1.45599,1.96674 3.00757,3.85986 4.63251,5.68908 1.68189,1.87245 3.52647,3.58402 5.38436,5.27811 1.83085,1.66993 3.97162,2.90686 6.03949,4.24538 2.51569,1.64023 5.27696,2.84345 7.92475,4.24616 2.59764,1.4814 5.28247,2.79144 7.98281,4.07244 2.13775,1.09947 4.42106,1.8652 6.61299,2.83733 1.97271,0.76041 3.96312,1.47745 5.97763,2.11959 1.9685,0.67242 3.96668,1.25452 5.93026,1.94301 1.94325,0.70211 3.82213,1.56598 5.763,2.27354 1.25109,0.59487 2.52032,1.06727 3.8882,1.294 0.65269,-0.10652 2.21302,0.49148 2.71452,0.0256 0.006,-0.0912 0.0653,-0.45219 -0.0676,-0.5287 -0.0524,-0.0302 -0.0728,0.10364 -0.12769,0.12903 -0.0595,0.0275 -0.13422,-0.003 -0.19547,0.0204 -0.30231,0.1147 -0.32921,0.25106 -0.53141,0.52269 -1.21658,0.62675 -2.37968,1.33185 -3.60814,1.93767 -0.68657,0.44249 -1.4794,0.61839 -2.23341,0.89146 -0.65023,0.23547 -1.22859,0.47832 -1.90699,0.63109 -1.81948,0.48987 -3.7489,0.46706 -5.62215,0.52082 -8.35844,0.15201 -4.6611,0.0776 20.33058,-0.016 0.44783,-0.002 -0.89549,-0.0193 -1.34301,-0.036 -1.43766,-0.0539 -2.87473,-0.13927 -4.31204,-0.20275 -2.81988,-0.12667 -5.64515,-0.0939 -8.4634,-0.25158 -3.02311,-0.15982 -6.01587,-0.64627 -8.99083,-1.18491 -2.55139,-0.59338 -5.1203,-1.10019 -7.68333,-1.64012 -2.56683,-0.61959 -5.10051,-1.35565 -7.67089,-1.96182 -2.72042,-0.65999 -5.41163,-1.44327 -8.05699,-2.35856 -1.74104,-0.53008 -3.326,-1.4076 -4.90975,-2.28143 -2.0568,-1.16049 -4.58791,-1.51919 -6.55328,-2.82917 -1.93876,-1.31643 -3.39993,-2.07459 -5.29223,-3.45794 -2.38851,-1.7855 0,0 -7.81058,-5.2633 -2.63137,-1.52942 -4.84613,-4.18958 -7.29897,-5.99084 -2.26435,-1.70649 -4.17459,-3.79853 -6.06111,-5.89783 -1.80142,-1.98068 -3.59308,-3.97198 -5.33688,-6.00369 -1.49472,-1.86788 -2.96845,-3.75349 -4.4037,-5.66771 -1.76957,-2.02381 -3.54198,-4.03933 -5.24699,-6.1207 -1.32992,-1.56317 -2.69871,-3.09277 -3.98868,-4.68938 -1.49256,-1.95802 -2.98001,-3.90228 -4.57849,-5.77698 -1.74006,-1.86829 -3.11204,-4.02468 -4.63286,-6.0634 -1.31836,-1.94333 -2.83976,-3.73078 -4.31842,-5.550846 -1.58382,-2.02316 -3.22984,-3.99619 -4.8636,-5.97891 -1.44076,-1.70927 -2.86793,-3.44019 -4.39172,-5.07642 -1.39388,-1.44346 -3.00732,-2.58391 -4.86212,-3.34009 -1.76027,-0.5993 -3.60428,-0.81268 -5.45122,-0.89636 -8.9743,-0.0667 -18.16262,-1.74689 -26.95652,0.10343 -0.60102,0.12646 -1.19009,0.30499 -1.78936,0.43948 -0.79208,0.23723 -1.55579,0.56382 -2.33779,0.82556 -0.24416,0.0817 -0.5042,0.11231 -0.74557,0.20195 -0.43224,0.16054 -1.27719,0.617 -1.67546,0.82423 -1.56049,0.63349 -3.16552,1.18332 -4.45274,2.29797 -1.37184,1.25573 -1.50049,3.18666 -1.5808,4.9348 -0.0945,1.63805 0.36061,3.18455 1.01564,4.66335 0.53874,0.93514 2.41774,1.1573 3.32283,1.758166 3.29615,2.45633 1.47845,1.39352 2.21312,1.75431 5.82873,-2.221696 23.29273,0.42267 18.82949,-2.246116 -0.15564,-0.0948 -2.48853,0.0351 0.16422,-0.31252 0.15487,-0.0203 -0.29939,-0.0541 -0.44156,-0.11878 -1.03294,-1.90042 1.83514,3.610106 -0.40416,-2.14071 -1.08711,-2.18397 -1.39353,-4.99317 0.44629,-5.99929 1.39426,-0.6663 2.82575,-1.25039 4.23938,-1.87356 1.53582,-0.54383 3.10901,-1.04102 4.71611,-1.31915 0.89725,-0.13406 0.84132,-0.15609 1.76309,-0.1686 0.27825,-0.004 1.11296,0.0164 0.83468,0.0166 -38.40248,0.0237 -28.40662,0.0301 -20.3926,-0.0136 1.80936,-0.006 3.62307,-0.005 5.41699,0.27145 0.35453,0.0624 1.41414,0.22988 1.77869,0.36433 1.06601,0.39316 1.94462,1.1858 2.88339,1.79365 0.98859,0.96126 1.91795,1.9706 2.9011,2.93633 0.29572,0.29047 0.61942,0.553 0.90019,0.85795 0.31256,0.33947 0.58426,0.7144 0.87639,1.0716 1.63685,1.95187 3.15072,4.00242 4.786,5.954796 1.44295,1.78712 2.88834,3.58233 4.22459,5.44821 1.5289,2.10706 3.16768,4.13611 4.79471,6.16776 1.47659,1.89961 3.07501,3.69834 4.35848,5.74243 0.39774,0.52875 0.76583,1.07993 1.1766,1.59861 0.90145,1.13826 2.04395,2.06359 2.96076,3.18958 1.7681,1.97125 3.40093,4.05545 5.21274,5.98708 1.49431,1.93254 2.85374,3.97724 4.55747,5.74027 0.62999,0.80514 1.14169,1.48841 1.82511,2.24764 0.29505,0.32777 0.63067,0.61808 0.91861,0.9521 0.83245,0.96564 1.51441,2.06813 2.46119,2.93773 2.01484,2.17604 4.06132,4.34452 6.35617,6.22782 2.33733,2.06507 4.89329,3.82778 7.65997,5.27433 2.42253,1.48295 4.82178,2.99196 7.12111,4.66213 1.82535,1.569 3.92319,2.76282 5.87494,4.15931 1.93504,1.29452 3.82581,2.67076 5.89496,3.74635 1.59731,1.15622 3.33905,2.13682 5.1851,2.83712 2.71119,0.8475 5.39249,1.79468 8.13695,2.53451 2.57219,0.64312 5.15241,1.23506 7.69605,1.98616 2.53965,0.636 5.11698,1.07168 7.65324,1.71468 2.96218,0.63851 5.97013,1.03497 8.96472,1.48795 0.83703,0.0691 1.6714,0.17796 2.51049,0.21436 2.03005,0.0881 4.0708,-0.0428 6.10091,0.0847 1.23935,0.0426 1.64601,0.0509 2.87513,0.1153 0.90142,0.0473 1.79984,0.16828 2.70249,0.17234 22.91359,0.10296 16.3271,0.36348 25.69136,-0.0352 2.07327,-0.13913 4.14764,-0.33432 6.10225,-1.09532 1.37547,-0.60255 2.7597,-1.17846 4.06361,-1.93135 1.38461,-0.78141 2.86064,-1.55595 3.92283,-2.75949 0.96026,-0.87352 1.17794,-2.12405 1.00099,-3.37549 -0.63241,-1.71159 -1.51236,-1.69175 -3.12814,-2.02518 -1.34684,-0.007 -2.68539,-0.008 -3.93459,-0.59574 -1.93595,-0.81967 -3.98685,-1.36978 -5.89075,-2.28336 -0.7639,-0.317 -1.30638,-0.55551 -2.09014,-0.82638 -0.67122,-0.23198 -1.375,-0.36297 -2.04357,-0.6025 -2.58512,-0.92617 0.78859,0.0734 -1.73065,-0.6382 -1.99165,-0.67071 -4.02136,-1.22251 -5.99193,-1.95622 -1.28518,-0.47223 -0.64129,-0.19636 -1.92721,-0.83795 -0.36136,-0.14499 -0.74579,-0.22466 -1.11421,-0.35062 -1.30714,-0.44691 -2.61051,-0.92501 -3.86344,-1.50818 -2.69231,-1.19579 -5.36792,-2.4558 -7.91083,-3.94665 -2.59347,-1.37871 -5.27038,-2.581 -7.82648,-4.02967 -1.99092,-1.34787 -4.06853,-2.56522 -5.99353,-4.00505 -1.96379,-1.45062 -3.64064,-3.25217 -5.329,-5.00824 -1.69052,-1.62759 -3.11557,-3.48134 -4.51895,-5.3571 -0.39725,-0.54611 -0.83131,-1.06622 -1.20389,-1.62945 -0.69191,-1.04597 -1.24469,-2.18914 -1.87458,-3.27191 -0.72392,-1.70484 -1.23357,-3.49639 -1.08891,-5.36746 0.0421,-1.28283 0.10951,-2.56612 0.21604,-3.8452 0.0855,-0.61654 0.28082,-2.20492 0.9308,-2.447 0.29153,-0.0391 0.65983,-0.16287 0.94138,-0.16753 0.13297,-0.002 0.52265,0.0847 0.38966,0.0857 -23.32056,0.17076 -17.81836,1.33246 -17.81836,1.33246 2.13612,-0.22536 -1.56181,-0.50759 0,0 2.13046,0.65995 4.18323,1.55114 6.34697,2.10671 2.62303,0.93457 5.2359,1.88702 7.81067,2.95131 2.62225,1.01253 5.27973,1.92419 7.92044,2.88549 2.85331,1.00932 5.70008,2.0364 8.52939,3.11024 2.97335,0.96654 5.87739,2.20972 9.01544,2.54352 3.55326,0.66744 7.12817,1.20068 10.69567,1.78333 3.79272,0.83053 7.59843,1.59819 11.36741,2.53249 3.75276,0.84534 7.51379,1.70175 11.34598,2.10323 1.10803,0.10445 2.21269,0.24383 3.32148,0.33988 9.69181,0.8396 19.45978,0.24613 29.18249,0.1025 3.07339,-0.0839 6.13913,-0.26837 9.2006,-0.55508 3.05705,-0.16617 6.11578,-0.37537 9.17925,-0.31303 2.839853,-5e-4 5.679703,-0.008 8.519533,0.004 8.88814,0.0458 23.75014,-0.10155 -16.379773,0.007 2.17843,-0.005 4.35696,-0.005 6.53535,0.008 1.989753,0.0217 3.986413,0.0279 5.967123,0.23608 0.61844,0.0781 1.23293,0.19735 1.85507,0.23644 1.35546,0.0852 2.72593,-0.0665 4.08257,0.0175 1.68916,0.0293 3.39676,0.0206 5.06339,0.32698 1.66553,0.35587 3.40781,0.16969 5.08369,0.51924 1.75544,0.28138 3.56072,0.24065 5.28302,0.7503 1.66587,0.19385 3.29459,0.66226 4.89791,1.14246 1.58523,0.59414 3.31483,0.72717 4.92214,1.28642 1.35317,0.26957 2.63578,0.73014 3.94137,1.15891 1.02829,0.0328 1.62688,0.54327 2.50798,1.0784 0.48356,0.49494 0,0 1.19329,1.25635 0.69518,0.73192 1.1611,1.18582 1.66484,1.85459 0.87691,0.75622 1.48678,1.3665 2.13006,2.14021 0.21477,0.25832 0.37749,0.55906 0.60619,0.80513 0.36915,0.39715 0.89929,0.62282 1.23713,1.05616 1.3404,0.67878 2.43577,1.65535 3.63239,2.54217 0.57296,0.57889 0.0859,0.0359 0.61605,0.81895 0.22725,0.3356 0.56405,0.64842 0.76666,0.99518 0.0877,0.15012 0.1354,0.32029 0.20309,0.48043 0.59464,1.22329 0.8084,2.61572 1.29086,3.88647 0.32372,1.3986 0.72498,2.76287 0.85706,4.1979 0.19865,1.36877 0.18405,2.76836 0.42031,4.13603 0.24286,1.59331 0.40598,3.19531 0.70764,4.78009 0.34134,1.92435 0.78677,3.82897 1.18243,5.74328 0.49497,2.10989 1.07193,4.17404 1.85004,6.20172 0.80539,2.27051 1.55024,4.56323 2.31715,6.84715 0.6621,2.54051 1.33568,5.08853 1.66365,7.69847 0.21662,1.86043 0.42655,3.71535 0.54387,5.58499 0.0963,1.34279 -0.019,2.69723 -0.0211,4.04327 -0.0357,0.98175 -0.021,1.96503 -0.0832,2.94599 -0.0843,1.30523 -0.24053,2.60437 -0.30559,3.91088 -0.007,1.12833 0.0694,2.30244 -0.20576,3.40258 -0.23837,0.21241 -0.57617,-0.24257 -0.49075,-0.24404 7.70458,-0.13279 15.41099,-0.17626 23.11666,-0.15071 0.21115,7e-4 -0.3828,0.19668 -0.59199,0.22537 -0.26007,0.0357 -0.52446,-0.0242 -0.78669,-0.0363 -1.8375,-0.5197 -3.5073,-1.4712 -5.07076,-2.55433 -1.12218,-0.47393 -2.102,-1.28179 -3.32181,-1.51466 -1.65053,-0.67633 -3.42964,-1.03497 -5.07599,-1.73777 -2.80631,-0.87679 -5.55288,-1.95293 -8.48445,-2.38366 -3.5768,-0.83442 -7.18529,-1.50099 -10.79782,-2.157 -2.50208,-0.50204 -5.04109,-0.84531 -7.50553,-1.51347 -1.2027,-0.2483 -2.41043,-0.37518 -3.62214,-0.57447 -3.71632,-0.61124 0.81867,0.13286 -3.07715,-0.54957 -0.5447,-0.0954 -1.11391,-0.19257 -1.66022,-0.27822 -1.36879,-0.25105 -1.97612,-0.29622 -3.36864,-0.44284 -2.62108,-0.27598 -5.22279,-0.28097 -7.85004,-0.46329 -2.19931,-0.0884 -4.38833,-0.0826 -6.58921,-0.0824 -9.7562,8.3e-4 -19.512353,0.005 -29.268533,-0.002 -4.379,0.0131 -8.75817,0.0528 -13.13599,0.15952 -3.6194,0.1111 -7.23256,0.14007 -10.85347,0.20229 -3.60326,0.1065 -7.07489,0.28657 -10.6797,0.32671 -3.57935,0.0163 -7.28911,0.27357 -10.86262,0.50773 -4.19485,0.28022 -8.37647,0.70359 -12.55934,1.123 -3.77247,0.37534 -7.52643,0.87464 -11.28156,1.39147 -3.70436,0.39218 -7.43824,0.34213 -11.15325,0.59528 -3.5755,0.18171 -7.15451,0.29674 -10.72379,0.58719 -8.92257,0.43105 -25.11091,1.32118 14.70632,0.37289 -2.81699,-2.4e-4 -5.63427,0.004 -8.45088,-0.05 -2.69224,-0.0666 -5.40181,-0.11321 -8.06454,-0.55189 -2.36374,-0.16857 -4.70151,-0.55119 -7.07099,-0.64922 -3.2812,-0.2904 -6.54876,-0.70612 -9.83049,-0.98394 -2.67663,-0.29438 -5.31453,-0.81463 -7.97444,-1.22475 -2.58755,-0.49708 -5.22355,-0.65481 -7.79309,-1.24614 -3.00662,-0.72544 -5.9937,-1.52434 -9.0157,-2.18317 -2.90686,-0.57642 -5.78902,-1.31576 -8.58842,-2.29147 -2.38287,-0.83156 -4.75158,-1.84071 -6.82059,-3.30262 -1.93034,-1.34899 -3.7614,-2.85321 -5.41675,-4.53043 -2.08092,-1.72552 -4.09471,-3.55651 -5.8246,-5.64035 -1.87307,-2.26029 -3.83882,-4.47047 -5.35854,-6.99375 -1.61173,-2.47646 -2.8095,-5.20442 -4.20341,-7.80646 -1.59031,-3.3524 -3.12255,-6.73218 -4.65773,-10.11015 -1.77599,-3.51083 -3.25374,-7.15599 -4.99819,-10.68283 -1.63039,-3.86194 -3.0199,-7.81021 -4.56785,-11.7049 -1.79339,-4.4006 -3.85332,-8.69384 -5.30298,-13.22915 -1.48352,-4.10918 -3.28183,-8.10811 -4.44534,-12.32619 -0.97733,-3.7994 -2.02286,-7.58506 -2.76828,-11.4391 -0.51173,-3.1592 -4.21642,-5.762596 -3.7134,-8.959426 H -335.568 Z" />
    </g>
  </g>
</svg>
